# xmcd CD database file
#
# Track frame offsets:
#	150
#	19412
#	35700
#
# Disc length: 593 seconds
#
# Revision: 1
# Processed by: cddbd v1.5.1PL2 Copyright (c) Steve Scherf et al.
# Submitted via: CDex 1.51
#
DISCID=22024f03
DTITLE=Loveshop - Playtime-EP
DYEAR=1995
DGENRE=Pop
TTITLE0=Ind Til Dig
TTITLE1=S.O.S.
TTITLE2=Højre Hånd
EXTD=YEAR: 1995
EXTT0=
EXTT1=
EXTT2=
PLAYORDER=
